<svg xmlns="http://www.w3.org/2000/svg" width="510" height="148" viewBox="0 0 510 148" fill-rule="nonzero">

<g transform="translate(24,24) scale(1.0)"><path d="M0.00,0.00 56.00,0.00 56.00,16.00 0.00,16.00ZM20.00,0.00 36.00,0.00 36.00,100.00 20.00,100.00ZM68.00,0.00 84.00,0.00 84.00,100.00 68.00,100.00ZM68.00,0.00 118.00,0.00 118.00,16.00 68.00,16.00ZM68.00,42.00 110.00,42.00 110.00,58.00 68.00,58.00ZM68.00,84.00 118.00,84.00 118.00,100.00 68.00,100.00ZM130.00,0.00 146.00,0.00 146.00,100.00 130.00,100.00ZM146.00,0.00 168.00,0.00 168.00,0.00 170.78,0.39 173.47,1.57 176.00,3.48 178.28,6.08 180.26,9.29 181.86,13.00 183.04,17.11 183.76,21.49 184.00,26.00 183.76,30.51 183.04,34.89 181.86,39.00 180.26,42.71 178.28,45.92 176.00,48.52 173.47,50.43 170.78,51.61 168.00,52.00 146.00,52.00ZM146.00,38.00 164.00,38.00 166.07,37.63 168.00,36.53 169.66,34.78 170.93,32.50 171.73,29.85 172.00,27.00 171.73,24.15 170.93,21.50 169.66,19.22 168.00,17.47 166.07,16.37 164.00,16.00 164.00,16.00 146.00,16.00ZM158.00,38.00 174.00,38.00 188.00,100.00 172.00,100.00ZM200.00,0.00 216.00,0.00 216.00,100.00 200.00,100.00ZM216.00,0.00 238.00,0.00 238.00,0.00 240.78,0.39 243.47,1.57 246.00,3.48 248.28,6.08 250.26,9.29 251.86,13.00 253.04,17.11 253.76,21.49 254.00,26.00 253.76,30.51 253.04,34.89 251.86,39.00 250.26,42.71 248.28,45.92 246.00,48.52 243.47,50.43 240.78,51.61 238.00,52.00 216.00,52.00ZM216.00,38.00 234.00,38.00 236.07,37.63 238.00,36.53 239.66,34.78 240.93,32.50 241.73,29.85 242.00,27.00 241.73,24.15 240.93,21.50 239.66,19.22 238.00,17.47 236.07,16.37 234.00,16.00 234.00,16.00 216.00,16.00ZM228.00,38.00 244.00,38.00 258.00,100.00 242.00,100.00ZM270.00,100.00 300.00,0.00 330.00,100.00ZM292.29,66.00 307.71,66.00 300.00,30.00ZM285.00,100.00 315.00,100.00 310.71,80.00 289.29,80.00ZM393.45,82.14 391.10,86.57 388.46,90.45 385.57,93.73 382.49,96.36 379.25,98.30 375.90,99.51 372.49,99.99 369.07,99.73 365.70,98.72 362.42,96.98 359.29,94.55 356.34,91.45 353.63,87.74 351.19,83.46 349.06,78.68 347.28,73.47 345.86,67.92 344.83,62.10 344.21,56.09 344.00,50.00 344.21,43.91 344.83,37.90 345.86,32.08 347.28,26.53 349.06,21.32 351.19,16.54 353.63,12.26 356.34,8.55 359.29,5.45 362.42,3.02 365.70,1.28 369.07,0.27 372.49,0.01 375.90,0.49 379.25,1.70 382.49,3.64 385.57,6.27 388.46,9.55 391.10,13.43 393.45,17.86 382.72,28.15 381.55,25.13 380.23,22.49 378.79,20.26 377.24,18.48 375.62,17.16 373.95,16.33 372.24,16.01 370.54,16.19 368.85,16.87 367.21,18.05 365.64,19.71 364.17,21.81 362.82,24.34 361.60,27.25 360.53,30.50 359.64,34.04 358.93,37.82 358.42,41.77 358.10,45.86 358.00,50.00 358.10,54.14 358.42,58.23 358.93,62.18 359.64,65.96 360.53,69.50 361.60,72.75 362.82,75.66 364.17,78.19 365.64,80.29 367.21,81.95 368.85,83.13 370.54,83.81 372.24,83.99 373.95,83.67 375.62,82.84 377.24,81.52 378.79,79.74 380.23,77.51 381.55,74.87 382.72,71.85ZM412.00,0.00 428.00,0.00 428.00,100.00 412.00,100.00ZM412.00,0.00 462.00,0.00 462.00,16.00 412.00,16.00ZM412.00,42.00 454.00,42.00 454.00,58.00 412.00,58.00ZM412.00,84.00 462.00,84.00 462.00,100.00 412.00,100.00Z" fill="#7A1F2B"></path></g>
</svg>
